# xmcd CD database file
#
# Track frame offsets:
#	150
#	29707
#	52213
#	77953
#	102294
#	133608
#	165130
#	186793
#	214026
#	238998
#	268186
#	299768
#
# Disc length: 4447 seconds
#
# Revision: 1
# Processed by: cddbd v1.5.2PL0 Copyright (c) Steve Scherf et al.
# Submitted via: CDex 2.14
#
DISCID=bb115d0c
DTITLE=Curtis Brothers Quartet - Syszygy
DYEAR=2016
DGENRE=Jazz
TTITLE0=Afro Blue
TTITLE1=Hallucinations
TTITLE2=Bebop
TTITLE3=Betcha By Golly Wow
TTITLE4=Yes or No
TTITLE5=Syzygy
TTITLE6=Start The World I Want To Get On
TTITLE7=All of You
TTITLE8=Hi-Heel Sneakers
TTITLE9=What's Going On
TTITLE10=Cheer Up Charlie
TTITLE11=Quicksilver
EXTD=YEAR: 2016
EXTT0=
EXTT1=
EXTT2=
EXTT3=
EXTT4=
EXTT5=
EXTT6=
EXTT7=
EXTT8=
EXTT9=
EXTT10=
EXTT11=
PLAYORDER=
